<svg width="80" height="54" fill="none" xmlns="http://www.w3.org/2000/svg"><path d="M2.013 42.246V44.6h2.86v.968h-2.86v2.409h3.19V49H.759v-7.766h4.444v1.012h-3.19Zm7.795.594c.704 0 1.269.227 1.694.682.425.455.638 1.104.638 1.947V49h-1.254v-3.399c0-.543-.14-.96-.418-1.254-.278-.3-.66-.451-1.144-.451-.499 0-.898.161-1.199.484-.3.315-.45.781-.45 1.397V49H6.42v-6.061h1.254v1.331c.161-.455.433-.807.814-1.056.381-.25.821-.374 1.32-.374Zm6.23.022c.55 0 1.019.136 1.408.407.388.271.663.63.825 1.078v-1.408h1.254v6.127c0 .565-.118 1.063-.352 1.496-.228.44-.558.785-.99 1.034-.433.25-.946.374-1.54.374-.851 0-1.54-.202-2.068-.605-.521-.403-.847-.95-.98-1.639h1.244c.102.36.3.638.594.836.293.205.667.308 1.122.308.498 0 .909-.154 1.232-.462.322-.308.484-.755.484-1.342v-1.474a2.191 2.191 0 0 1-.825 1.078c-.389.271-.858.407-1.408.407a2.717 2.717 0 0 1-1.42-.374 2.568 2.568 0 0 1-.967-1.078c-.235-.47-.352-1.023-.352-1.661 0-.63.117-1.18.352-1.65.234-.47.557-.829.968-1.078.418-.25.89-.374 1.419-.374Zm.385 1.1c-.558 0-1.005.18-1.342.539-.33.352-.495.84-.495 1.463 0 .623.165 1.115.495 1.474.337.352.784.528 1.342.528.352 0 .667-.08.946-.242.278-.169.498-.403.66-.704.161-.3.242-.653.242-1.056 0-.396-.081-.744-.242-1.045a1.704 1.704 0 0 0-.66-.704 1.79 1.79 0 0 0-.946-.253Zm4.43-2.783c0-.213.074-.389.22-.528.147-.14.341-.209.584-.209.241 0 .436.07.582.209.154.14.232.315.232.528a.648.648 0 0 1-.232.517c-.146.132-.34.198-.582.198-.242 0-.437-.066-.584-.198a.663.663 0 0 1-.22-.517Zm1.43 1.76V49H21.03v-6.061h1.255Zm4.906-.099c.704 0 1.269.227 1.694.682.425.455.638 1.104.638 1.947V49h-1.254v-3.399c0-.543-.14-.96-.418-1.254-.279-.3-.66-.451-1.144-.451-.499 0-.898.161-1.199.484-.3.315-.451.781-.451 1.397V49h-1.254v-6.061h1.254v1.331c.161-.455.433-.807.814-1.056.381-.25.821-.374 1.32-.374Zm9.43 2.838c0 .205-.014.385-.044.539h-4.664c.022.623.195 1.085.517 1.386.323.3.723.451 1.2.451.417 0 .77-.106 1.056-.319a1.31 1.31 0 0 0 .538-.847h1.343c-.081.425-.25.803-.506 1.133-.257.33-.59.59-1.002.781-.41.183-.869.275-1.375.275-.586 0-1.107-.125-1.562-.374a2.67 2.67 0 0 1-1.055-1.078c-.257-.47-.386-1.023-.386-1.661 0-.63.129-1.18.386-1.65a2.67 2.67 0 0 1 1.055-1.078c.455-.25.976-.374 1.563-.374.593 0 1.11.125 1.55.374.448.242.789.58 1.024 1.012.242.425.363.902.363 1.43Zm-1.264-.033c.014-.396-.055-.726-.21-.99a1.34 1.34 0 0 0-.616-.594 1.825 1.825 0 0 0-.847-.198c-.49 0-.901.15-1.232.451-.33.3-.51.744-.539 1.331h3.444Zm8.107.033c0 .205-.014.385-.044.539h-4.664c.022.623.195 1.085.517 1.386.323.3.723.451 1.2.451.417 0 .77-.106 1.055-.319a1.31 1.31 0 0 0 .54-.847h1.341c-.08.425-.249.803-.506 1.133-.256.33-.59.59-1 .781-.411.183-.87.275-1.376.275-.586 0-1.107-.125-1.562-.374a2.67 2.67 0 0 1-1.056-1.078c-.256-.47-.385-1.023-.385-1.661 0-.63.129-1.18.385-1.65a2.67 2.67 0 0 1 1.056-1.078c.455-.25.976-.374 1.562-.374.594 0 1.111.125 1.551.374.448.242.789.58 1.023 1.012.242.425.363.902.363 1.43Zm-1.265-.033c.015-.396-.055-.726-.209-.99a1.34 1.34 0 0 0-.616-.594 1.825 1.825 0 0 0-.847-.198c-.491 0-.902.15-1.232.451-.33.3-.51.744-.539 1.331h3.443Zm3.73-1.518a2.3 2.3 0 0 1 .88-.935 2.467 2.467 0 0 1 1.32-.352v1.364h-.374c-.55 0-.994.136-1.33.407-.33.264-.496.704-.496 1.32V49h-1.254v-6.061h1.254v1.188Zm5.13-1.265c.712 0 1.28.183 1.706.55.432.36.696.843.792 1.452h-1.188a1.248 1.248 0 0 0-.43-.792c-.227-.205-.531-.308-.912-.308-.316 0-.561.077-.737.231-.169.147-.253.348-.253.605 0 .19.062.345.187.462.124.117.278.209.462.275.19.066.458.14.803.22.454.103.821.209 1.1.319.286.11.528.286.726.528.205.235.308.557.308.968 0 .506-.195.917-.583 1.232-.382.315-.899.473-1.551.473-.756 0-1.368-.176-1.837-.528-.462-.352-.741-.843-.836-1.474h1.22c.037.33.184.598.44.803.257.205.595.308 1.013.308.3 0 .535-.077.704-.231a.787.787 0 0 0 .264-.605.663.663 0 0 0-.198-.506 1.313 1.313 0 0 0-.495-.286 6.101 6.101 0 0 0-.814-.22c-.44-.103-.8-.205-1.078-.308a1.74 1.74 0 0 1-.704-.495c-.191-.235-.286-.55-.286-.946 0-.513.19-.928.572-1.243.388-.323.924-.484 1.606-.484Z" fill="#F37821"/><path d="M63.93 41.234V49h-1.265v-3.487h-3.652V49h-1.254v-7.766h1.254v3.256h3.652v-3.256h1.265Zm7.108 1.705V49h-1.265v-1.32a1.98 1.98 0 0 1-.803 1.045c-.38.242-.825.363-1.33.363-.705 0-1.27-.227-1.695-.682-.425-.455-.638-1.104-.638-1.947v-3.52h1.254v3.388c0 .55.14.975.418 1.276.28.293.66.44 1.144.44.5 0 .899-.161 1.2-.484.3-.323.45-.792.45-1.408v-3.212h1.265Zm4.978-.077c.528 0 .998.125 1.408.374.418.25.745.609.98 1.078.234.47.351 1.02.351 1.65 0 .638-.117 1.192-.352 1.661-.234.47-.56.829-.979 1.078-.41.25-.88.374-1.408.374-.55 0-1.02-.136-1.408-.407a2.129 2.129 0 0 1-.814-1.078V49H72.54v-8.14h1.254v3.487c.154-.447.426-.807.814-1.078.389-.271.858-.407 1.408-.407Zm-.385 1.1a1.79 1.79 0 0 0-.946.253 1.704 1.704 0 0 0-.66.704c-.161.3-.242.649-.242 1.045 0 .403.08.755.242 1.056.162.3.382.535.66.704.279.161.594.242.946.242.558 0 1.005-.176 1.342-.528.338-.36.506-.85.506-1.474 0-.616-.168-1.104-.506-1.463-.337-.36-.784-.539-1.342-.539Z" fill="#fff"/><path fill-rule="evenodd" clip-rule="evenodd" d="M36.315 26.597c-.278.175-.76.353-1.042.505a8.8 8.8 0 0 0-.976.636c-.324.237-.6.482-.864.747-.187.187-.605.63-.726.872l-.611-.256c.253-.346.772-.47 1.27-1.622.95-2.196-.594-4.98-3.3-5.01-1.741-.02-2.991 1.146-3.45 2.424-.418 1.16-.154 2.558.602 3.479.264.322.636.582.74.711l-.793.385c.128.287.802.935 1.03 1.15 4.814 4.542 11.971 5.728 18.03 2.732.978-.483 1.898-1.101 2.675-1.692.49-.372 1.938-1.682 2.239-2.147l-.812-.412.363-.351c2.482-2.264.788-6.331-2.485-6.28-1.746.028-2.955 1.189-3.382 2.494-.836 2.555 1.161 3.853 1.358 4.12l-.468.23c-.094-.199-.56-.718-.706-.86-.668-.646-1.955-1.58-2.879-1.812.11-.158.001-.02.117-.143l.455-.367c1.355-1.114 2.037-3.523 1.416-5.385-1.585-4.75-8.186-4.671-9.751-.06-.688 2.026.003 4.365 1.665 5.658.05.038.1.077.148.12l.136.134Z" fill="#fff"/><path fill-rule="evenodd" clip-rule="evenodd" d="m37.325.077-.94 3.336c-.494.088-1.008.195-1.491.34-.514.154-.431.232-1.057-.474L32.083 1.4c-.877.084-3.316 1.709-4.038 2.136l.845 3.37-1.51 1.376-3.29-1.006-1.262 1.87c-.31.513-.898 1.492-1.074 2.068.309.417 1.836 1.842 2.252 2.306.2.223.103.269-.015.617-.165.486-.294.954-.407 1.474l-3.379.779c-.179 1.49-.298 3.066-.11 4.59l3.32.925.214.983 3.13.014c-.224-1.266-.482-1.552-.533-3.223-.037-1.208.056-2.36.321-3.455.507-2.092 1.339-3.66 2.439-5.083 5.024-6.501 15.14-6.623 20.318-.018 2.24 2.857 3.229 6.444 2.604 10.168-.092.548-.28 1.106-.351 1.604l3.032.009c.332-.096-.28-.158.752-.383l2.526-.566c.346-.128.095-.004.22-.146.259-.602.235-3.75.105-4.526l-3.313-.91-.454-1.997 2.485-2.289c-.106-.755-1.736-3.579-2.187-4.034l-3.363.833c-.202-.316-1.085-1.257-1.343-1.423.028-.61.949-2.822.95-3.37-.794-.72-2.666-1.867-3.835-2.345-.33.133-2.028 1.961-2.486 2.349-.151-.007-1.74-.462-1.948-.542L41.919.233c-1.182-.349-3.293-.22-4.593-.156Z" fill="#F37821"/></svg>